<?xml version="1.0" encoding="UTF-8" standalone="no"?>
<svg
   enable-background="new 0 0 580 580"
   height="580"
   viewBox="0 0 580 580"
   width="580"
   version="1.1"
   id="svg5"
   sodipodi:docname="transport_traffic_lights.svg"
   inkscape:version="1.4 (86a8ad7, 2024-10-11)"
   xmlns:inkscape="http://www.inkscape.org/namespaces/inkscape"
   xmlns:sodipodi="http://sodipodi.sourceforge.net/DTD/sodipodi-0.dtd"
   xmlns="http://www.w3.org/2000/svg"
   xmlns:svg="http://www.w3.org/2000/svg">
  <defs
     id="defs5" />
  <sodipodi:namedview
     id="namedview5"
     pagecolor="#ffffff"
     bordercolor="#000000"
     borderopacity="0.25"
     inkscape:showpageshadow="2"
     inkscape:pageopacity="0.0"
     inkscape:pagecheckerboard="0"
     inkscape:deskcolor="#d1d1d1"
     inkscape:zoom="1.3913793"
     inkscape:cx="290"
     inkscape:cy="290"
     inkscape:window-width="1920"
     inkscape:window-height="1009"
     inkscape:window-x="-8"
     inkscape:window-y="-8"
     inkscape:window-maximized="1"
     inkscape:current-layer="svg5" />
  <path
     d="m381.926 119.683c.011 48.303-39.138 87.469-87.44 87.48-48.303.011-87.469-39.137-87.48-87.44 0-.013 0-.026 0-.04-.011-48.303 39.137-87.469 87.44-87.48 48.304-.011 87.47 39.138 87.48 87.441 0 .012 0 .025 0 .039z"
     fill="rgba(6,0,0,1.0)"
     opacity=".6"
     id="path1" />
  <path
     d="m381.926 291.683c.011 48.303-39.138 87.47-87.44 87.479-48.303.012-87.469-39.137-87.48-87.439 0-.014 0-.027 0-.04-.011-48.303 39.137-87.469 87.44-87.48 48.304-.011 87.47 39.137 87.48 87.44 0 .013 0 .027 0 .04z"
     fill="rgba(6,0,0,1.0)"
     opacity=".2"
     id="path2" />
  <path
     d="m381.926 461.683c.011 48.303-39.138 87.469-87.44 87.48-48.303.011-87.469-39.138-87.48-87.441 0-.013 0-.025 0-.039-.011-48.304 39.137-87.47 87.44-87.479 48.304-.012 87.47 39.137 87.48 87.439 0 .013 0 .026 0 .04z"
     fill="rgba(6,0,0,1.0)"
     opacity=".3"
     id="path3" />
  <path
     d="m296.092 17.83c-1.154-.013-2.315 0-3.47.029-49.731-.086-95.369 42.462-97.875 92.299-1.587 25.614.168 51.293-.504 76.935.213 95.855-.637 191.728.504 287.573 4.148 45.803 43.393 85.555 89.333 89.629 43.417 4.869 88.303-21.282 103.925-62.284 8.26-19.931 8.13-41.869 7.415-63.084-.274-110.329.624-220.675-.534-330.993-4.116-45.501-42.812-85.077-88.443-89.451-3.441-.393-6.888-.616-10.351-.653zm-.029 24.973c42.626 0 77.202 34.576 77.202 77.202s-34.576 77.172-77.202 77.172c-42.627 0-77.173-34.546-77.173-77.172s34.546-77.202 77.173-77.202zm0 170.835c42.626 0 77.202 34.576 77.202 77.202 0 42.627-34.576 77.172-77.202 77.172-42.627 0-77.173-34.545-77.173-77.172 0-42.627 34.546-77.202 77.173-77.202zm0 170.835c42.626 0 77.202 34.576 77.202 77.202 0 42.627-34.576 77.173-77.202 77.173-42.627 0-77.173-34.546-77.173-77.173 0-42.626 34.546-77.202 77.173-77.202z"
     fill="rgba(6,0,0,1.0)"
     stroke="rgba(35,35,35,1.0)"
     stroke-miterlimit="10"
     stroke-width="0.0"
     id="path4" />
  <path
     d="m296.092 17.83c-1.154-.013-2.315 0-3.47.029-49.731-.086-95.369 42.462-97.875 92.299-1.587 25.614.168 51.293-.504 76.935.213 95.855-.637 191.728.504 287.573 4.148 45.803 43.393 85.555 89.333 89.629 43.417 4.869 88.303-21.282 103.925-62.284 8.26-19.931 8.13-41.869 7.415-63.084-.274-110.329.624-220.675-.534-330.993-4.116-45.501-42.812-85.077-88.443-89.451-3.441-.393-6.888-.616-10.351-.653zm-.029 24.973c42.626 0 77.202 34.576 77.202 77.202s-34.576 77.172-77.202 77.172c-42.627 0-77.173-34.546-77.173-77.172s34.546-77.202 77.173-77.202zm0 170.835c42.626 0 77.202 34.576 77.202 77.202 0 42.627-34.576 77.172-77.202 77.172-42.627 0-77.173-34.545-77.173-77.172 0-42.627 34.546-77.202 77.173-77.202zm0 170.835c42.626 0 77.202 34.576 77.202 77.202 0 42.627-34.576 77.173-77.202 77.173-42.627 0-77.173-34.546-77.173-77.173 0-42.626 34.546-77.202 77.173-77.202z"
     fill="rgba(6,0,0,1.0)"
     fill-opacity="1"
     stroke="rgba(35,35,35,1.0)"
     stroke-opacity="1"
     stroke-width="0.0"
     id="path5" />
  <path
     style="fill:#000000;stroke-width:0.718711"
     d="m 281.82499,195.45074 c -15.84408,-3.14816 -29.48415,-10.65603 -40.8369,-22.47775 -9.32811,-9.71345 -14.98137,-19.47247 -19.01463,-32.82429 -1.81456,-6.00695 -1.95642,-7.41693 -1.98856,-19.76456 -0.0277,-10.64049 0.22249,-14.22923 1.25257,-17.96778 6.60022,-23.95474 20.48588,-41.032332 41.81086,-51.422034 12.52349,-6.101548 17.50737,-7.160371 33.42007,-7.100075 12.31029,0.04665 13.77577,0.194913 19.76456,1.999637 13.78418,4.153866 25.04237,10.910327 34.61143,20.771607 14.63139,15.078214 21.80741,32.636789 21.80741,53.359285 0,21.21656 -7.92632,39.93033 -23.18347,54.73534 -11.4156,11.07732 -24.24604,17.82248 -39.35223,20.68808 -7.19839,1.36551 -21.42513,1.36679 -28.29111,0.003 z"
     id="path6" />
  <path
     style="fill:#000000;stroke-width:0.718711"
     d="m 278.0565,194.12279 c -14.0366,-3.7118 -25.30397,-10.19384 -35.5778,-20.46766 -10.30187,-10.30187 -17.26303,-22.58762 -20.86186,-36.81906 -1.30692,-5.16817 -1.44739,-7.43803 -1.16891,-18.88913 0.29717,-12.21973 0.45452,-13.43234 2.57484,-19.842851 7.30002,-22.070643 20.80222,-37.322535 42.00722,-47.450756 11.56147,-5.522144 14.31758,-6.054449 31.43841,-6.071888 14.3217,-0.01459 14.90436,0.04239 20.84263,2.038331 13.18563,4.431881 23.06812,10.471084 32.40406,19.802171 16.85468,16.845931 23.85421,36.170753 22.04544,60.864663 -1.26403,17.25679 -8.55433,32.6991 -21.72542,46.01873 -9.86461,9.97585 -20.02386,16.10691 -33.44279,20.18255 -5.38544,1.63568 -7.64139,1.8858 -19.04585,2.11163 -11.85572,0.23476 -13.48443,0.11136 -19.48997,-1.47673 z"
     id="path7" />
  <path
     style="fill:#000000;stroke-width:0.718711"
     d="m 280.16109,194.72899 c -13.5635,-2.97426 -26.21196,-9.97677 -36.92301,-20.44151 -11.01999,-10.76658 -17.87877,-22.65195 -21.62816,-37.47877 -1.32558,-5.24197 -1.45375,-7.39284 -1.14698,-19.24849 0.31566,-12.19916 0.5159,-13.84159 2.32828,-19.096775 7.90065,-22.908791 20.8927,-37.614509 42.23877,-47.810112 11.55834,-5.520649 14.3181,-6.053936 31.43841,-6.075057 13.63479,-0.01682 15.10878,0.108896 19.76456,1.685719 13.32208,4.511935 23.17445,10.210571 31.92531,18.465686 13.97844,13.186555 22.39835,30.325225 23.63454,48.107989 1.74795,25.14429 -5.17825,43.94531 -22.50543,61.09046 -11.2591,11.14081 -23.41728,17.8121 -37.87542,20.78255 -6.88303,1.41413 -24.83755,1.42465 -31.25087,0.0183 z"
     id="path8" />
  <path
     style="fill:#000000;stroke-width:0.718711"
     d="m 280.16109,194.72899 c -13.55746,-2.97293 -26.20574,-9.9741 -36.92956,-20.44151 -11.1564,-10.88964 -17.82799,-22.48964 -21.67199,-37.68141 -1.26662,-5.00579 -1.39996,-7.3218 -1.0966,-19.04585 0.31566,-12.19916 0.5159,-13.84159 2.32828,-19.096775 7.91791,-22.958852 20.84605,-37.592229 42.23877,-47.810112 11.55834,-5.520649 14.3181,-6.053936 31.43841,-6.075057 13.54838,-0.01672 15.13829,0.116772 19.76456,1.659414 17.65307,5.886456 30.96228,15.229422 41.36988,29.041349 10.93181,14.50761 15.59427,31.563741 14.19636,51.932861 -2.19104,31.92563 -28.07757,60.86071 -60.38724,67.49878 -6.88303,1.41413 -24.83755,1.42465 -31.25087,0.0183 z"
     id="path9" />
  <path
     style="fill:#ff0000;stroke-width:0.718711;fill-opacity:1"
     d="m 280.2974,194.79531 c -2.37175,-0.51657 -7.27776,-2.05315 -10.90226,-3.41462 -19.04826,-7.15511 -36.46129,-24.25889 -44.17129,-43.38682 -4.4276,-10.98455 -5.16388,-15.73838 -4.7592,-30.72818 0.3141,-11.63449 0.55692,-13.65762 2.23502,-18.621833 7.50631,-22.205474 20.15557,-36.875598 40.75017,-47.260473 12.24507,-6.174601 15.24965,-6.801394 32.65921,-6.81312 12.81089,-0.0086 15.74495,0.194972 19.4052,1.346562 31.79579,10.003599 54.17149,36.61055 56.27856,66.920844 1.41873,20.4084 -3.23622,37.39613 -14.25373,52.01747 -11.57761,15.36465 -29.06531,26.63351 -46.51167,29.97155 -6.67032,1.27624 -24.81143,1.25772 -30.73001,-0.0314 z"
     id="path10" />
  <path
     style="fill:#ffff00;fill-opacity:1;stroke-width:0.718711"
     d="m 283.17224,366.46526 c -10.7234,-1.9146 -19.72098,-5.47608 -28.82238,-11.40868 -17.68357,-11.52673 -29.85591,-29.71134 -33.7464,-50.41471 -1.62189,-8.63098 -1.09669,-24.82262 1.06219,-32.74625 6.84265,-25.11431 24.80159,-44.70535 48.91796,-53.3636 9.41307,-3.37948 14.6227,-4.22247 25.88479,-4.18851 8.75158,0.0264 11.52377,0.32038 17.30209,1.83487 22.57665,5.9173 40.15562,19.68606 50.20544,39.32348 6.75799,13.20517 9.11414,24.06024 8.46659,39.00672 -0.63816,14.72989 -4.19733,25.81377 -12.26204,38.18612 -4.68505,7.18751 -11.28631,14.35202 -17.63126,19.13566 -5.65863,4.26621 -16.57926,9.98471 -23.08206,12.08674 -11.14134,3.60145 -24.96129,4.57171 -36.29492,2.54816 z"
     id="path11" />
  <path
     style="fill:#00ff00;fill-opacity:1;stroke-width:0.718711"
     d="m 286.7658,537.94322 c -30.95122,-3.9405 -56.73793,-26.65657 -65.10015,-57.34813 -2.15888,-7.92363 -2.68408,-24.11528 -1.06219,-32.74626 8.53263,-45.40674 55.132,-73.34959 98.8637,-59.28263 20.16123,6.48516 37.97572,22.50078 46.76925,42.04658 5.46402,12.14513 7.80149,29.48858 5.72289,42.46229 -5.0926,31.78572 -29.33236,57.28843 -60.58764,63.74438 -6.93229,1.43191 -18.15844,1.94461 -24.60586,1.12377 z"
     id="path12" />
</svg>
